/* XPM */
static char *bd066827fc244670f12da3627c57df14PPuRTF4s12AMasMO[] = {
/* columns rows colors chars-per-pixel */
"64 64 222 2 ",
"   c #1B350B",
".  c #294E0F",
"X  c #2A5D05",
"o  c #2A5A08",
"O  c #305F0E",
"+  c #2D6303",
"@  c #2E6904",
"#  c #2F6209",
"$  c #306304",
"%  c #336C03",
"&  c #33650D",
"*  c #356C0B",
"=  c #3A6D0C",
"-  c #367202",
";  c #3A7504",
":  c #3C7B03",
">  c #36720A",
",  c #3B750A",
"<  c #3E7A0B",
"1  c #346813",
"2  c #3B7313",
"3  c #3E7912",
"4  c #3B7518",
"5  c #3F7927",
"6  c #427E03",
"7  c #427009",
"8  c #427D0B",
"9  c #437D14",
"0  c #437E1C",
"q  c #4D7B1C",
"w  c #427E20",
"e  c #448303",
"r  c #498603",
"t  c #468902",
"y  c #4C8C03",
"u  c #45830B",
"i  c #49840C",
"p  c #47890B",
"a  c #4C8B0B",
"s  c #518F05",
"d  c #518E0D",
"f  c #4E9202",
"g  c #4E920D",
"h  c #539403",
"j  c #599505",
"k  c #559A03",
"l  c #5A9C03",
"z  c #54940B",
"x  c #5A960B",
"c  c #559A0B",
"v  c #5C9C0C",
"b  c #468313",
"n  c #4A8513",
"m  c #478812",
"M  c #4C8B14",
"N  c #45811A",
"B  c #49861A",
"V  c #4D8B1B",
"C  c #528E12",
"Z  c #528D1B",
"A  c #4F9112",
"S  c #4F901B",
"D  c #549313",
"F  c #5A9614",
"G  c #579913",
"H  c #5C9C14",
"J  c #54941B",
"K  c #59951C",
"L  c #57991B",
"P  c #5D9C1B",
"I  c #619E04",
"U  c #619E0B",
"Y  c #619E13",
"T  c #619E1B",
"R  c #57A001",
"E  c #5CA302",
"W  c #5EA902",
"Q  c #5DA20B",
"!  c #5DA112",
"~  c #5EA21B",
"^  c #62A404",
"/  c #68A703",
"(  c #64AB02",
")  c #69AD04",
"_  c #62A30B",
"`  c #69A70C",
"'  c #65AB0B",
"]  c #69AD0C",
"[  c #66B201",
"{  c #6BB303",
"}  c #6EBA02",
"|  c #6CB30B",
" . c #69B30C",
".. c #71B703",
"X. c #72BB04",
"o. c #71B60B",
"O. c #73BB0C",
"+. c #64A414",
"@. c #68A614",
"#. c #65AA12",
"$. c #6AAC13",
"%. c #64A31C",
"&. c #69A61C",
"*. c #65A91B",
"=. c #6BAC1C",
"-. c #67B014",
";. c #6DB213",
":. c #6DB21B",
">. c #71B613",
",. c #74BB13",
"<. c #71B51B",
"1. c #74BA1B",
"2. c #79BF1F",
"3. c #478427",
"4. c #4A8624",
"5. c #4D8B23",
"6. c #4A842B",
"7. c #4E8B2A",
"8. c #528E23",
"9. c #518D29",
"0. c #559424",
"q. c #599622",
"w. c #579923",
"e. c #5C9B24",
"r. c #55922C",
"t. c #59972B",
"y. c #57982C",
"u. c #5D9B2B",
"i. c #4B8435",
"p. c #518E32",
"a. c #599735",
"s. c #5D9B32",
"d. c #579538",
"f. c #619E24",
"g. c #629E2A",
"h. c #619D33",
"j. c #639F3A",
"k. c #5EA224",
"l. c #5FA028",
"z. c #5EA135",
"x. c #64A323",
"c. c #69A623",
"v. c #66A924",
"b. c #6BAB23",
"n. c #6CAA25",
"m. c #64A32C",
"M. c #69A62A",
"N. c #66A92C",
"B. c #6CAA2A",
"V. c #6BAB2D",
"C. c #6DB223",
"Z. c #6DB22C",
"A. c #71B125",
"S. c #71B424",
"D. c #75BA23",
"F. c #78BE24",
"G. c #72B42B",
"H. c #75BA2B",
"J. c #78BB2B",
"K. c #64A333",
"L. c #68A735",
"P. c #66A935",
"I. c #6BAB33",
"U. c #65A33B",
"Y. c #6BAB39",
"T. c #70AE33",
"R. c #6EB233",
"E. c #6EB13B",
"W. c #72B333",
"Q. c #75B934",
"!. c #7ABD33",
"~. c #72B33A",
"^. c #76B93C",
"/. c #79BB3B",
"(. c #75C102",
"). c #79C601",
"_. c #7DCA02",
"`. c #75C00C",
"'. c #7AC40C",
"]. c #7EC80B",
"[. c #76C011",
"{. c #7CC416",
"}. c #7FCB13",
"|. c #7AC21B",
" X c #7CC324",
".X c #7EC42A",
"XX c #7CC136",
"oX c #7DC13B",
"OX c #599546",
"+X c #6CAC43",
"@X c #64A248",
"#X c #6EAD4A",
"$X c #71AF41",
"%X c #6EB249",
"&X c #73B244",
"*X c #78B746",
"=X c #75B844",
"-X c #7BBC46",
";X c #72B44D",
":X c #7ABC4B",
">X c #6BAB55",
",X c #72AC5A",
"<X c #76B654",
"1X c #7BBE54",
"2X c #74B55A",
"3X c #7CBC5C",
"4X c #64A268",
"5X c #77B863",
"6X c #79C045",
"7X c #7BC04F",
"8X c #7DC159",
"9X c #81CC0A",
"0X c #85D303",
"qX c #89D02F",
"wX c #84C836",
"eX c #81C547",
"rX c #96DB48",
"tX c #84C757",
"yX c #81C364",
"uX c #88C869",
"iX c #89C772",
"pX c #94D47E",
/* pixels */
"f.H I @.x H x.U c.g.m.K h.u.U.f.K.g.m.x P H f.x T T f.g.g.c.B.I.V.&.=.Y c.b.c.b.x.T Y _ _ &.c.c.%.%.c.n.M.I.f.I.=.n.=.&.S.S.=.B.",
"v P I / U j _ %.F T +.Y u.g.U.g.M.f.Y F g.f.T x T H P T m.U %.T.~.+.@.+.W.b.n.n.x.m.x.U ` +.n.b.%.x.+.A.I.&X+XM.=.G.=.b.$.=.=.T.",
"l v ^ / _ j @.%.M.Y _ V.g.H f.g.Y Y x e.T T Y f.Y m.m.g.g.c.v n.V.Y %.x.~.&.@.+.c.&X&X%.b.&.b.W.B.n.&.A.W.$X$XI.$.n.A.=.S.$.=.T.",
"^ v / ] U Y n.&.U I ^ I M.x M.f.T T F T M.j Y M.I P e.x.L.+.T T.x.T H Y x.U I @.c.T.*X+.&.c.&.@.@.^ $.G.~.Y.I.c.) ] S.' D.A.@.x.",
"/ c.@.` b.v $.@._ ^ I I B.x T.Y H T f.T f.e.@.Y b.x F +.+.I U V.x.F F H j v j +.%.H T c.+.v V.P _ B.=.b.I.K.m.v / | =._ A.&./ @.",
"=.@.n.` ^ +.=.&.@./ b.^ c.P &.I v P P f.e.u.c.Y &.v Y &.T v U K.T %.d x C v j h _ %.z H x G m.q.^ +.b.+.B.L.T F ^ { ' %.@./ ^ +.",
"^ _ ` I I I n._ $.&.c.$.b.Y _ I %.e.g.z K z @.+.B.Y v ^ j x.B.g.&.x.m.^ x l j F =.%.H v z d m.K +.P @.%._ V.P e._ / ^ x.v k %.x.",
"^ ^ / I _ c.&.` ^ @._ ] b.v I j %.c.v z e.H v I.%.%.v _ P +.&.H U Y %.^ I I / %.<.+.v _ D F g.u.v v ^ x._ @.P T j @._ v x.k n.x.",
"/ @.^ ` &.#XI.$.&.U _ ) %.U I h T _ l h j %.F %.&.&.I &.m.U ^ +._ _ _ / / _ ) I { +.l _ F H m.m.v l l T _ b.T L x G.n.P L _ &.%.",
"I / ^ &.I f.x.$.=.T +.$.f.v v h l I x h j Y m._ I @.^ @.&.&.^ @.&.@.^ ] ^ +.n.+.<._ v Y _ $.x.Y.v v _ %._ T H J P =.G.~ g.:._ I.",
"/ ^ v %.I Y U / &.P U ) M.x %.j U U T h =.v F @.U @.@.%.%.^ / U I._ ^ / ' x.x.c.<.B.P Y / / _ H P h +.+.+.P H a c.+.I.m.T $.I.F ",
"/ l %.x.@._ I.` k h @.$.m.z x.j Y H v j n.%.P m.@.%._ +.P k $.n.V.+.v / &.e.m.%.A.x.v ` =.| =.I.x.K x.H x.v H D _ &.H *X@.G.W.k ",
"/ l %.%.@.@.<XU y I v =.F l c.H T H ^ ` M.v @.v @.U x $.F %.) v V.U ^ { %.+.H T +.I.M._ ;.` +.Y.+.u.x F K.z ~.q.^ b.I.Q ] J.C.$.",
"/ j v / ` ` <XH P _ x I.h j %.K.U U k =.Y.e.;.@.n.x.Z G.K j / ` ` I v / _ H V.v %.P v $...^ &.+._ F m.Y %.g.G.+.b.#.I.n.1.,.' $.",
"] k x ^ l ` L.%.L.h F H z H v V.v k l b.z q.` @.=.K i /.D z @.^ ) v l ^ v _ #.T ` m.%.' / ^ +.v m.K L T c.m.b.$.~.G.n.H..XO.^ ) ",
"$.k z ^ l ^ m.W.:Xx.d j y j %.x./ j H v k %.] @./ q.8 S.i v K.b.) @.v / j V.` F ( U b.=.H _ %.x.+.x.l ^ A.I.v o.| =.oX:..X..o.X.",
"h l *.v k ` x =Xb.W.P s y v Y.s _ L e.^ v =.] @.) F e.:.C H P #.( ` _ $.P | / H ] ] ) _ H _ g.K.%.W.h =.` Q.H { ] F.1.H.}.{ X./ ",
"a ' =.j y _ l :X_ ~.v a y v.I.C V.x m._ v $.] ^ ) T A.] m.P V.| G.|._ ) =./ / ' ] ` ' ` n.@.K.w.L.$.s :.E 2.+.) ) / O.F.9X{ { $.",
"E ^ x._ j _ v J.=.v.E i r %.&.r :._ %.v +.^ #.l | H 1.) %.! @.' =..Xv ) / / ^ | >.' l &.V.&.V.%.u.] ] _ ( |.E >.<.b.,.;.].) { S.",
"k @.m.] x ^ h ' { _ $.J u.P #.y { #.H z ] ^ l ^ ] U O.:.Q.l #.( /.=.+.+.] ) ^ ` ) $.H n.%.n.x.b.%.) @.v / ,.b.| @.=.{ ;.O.o.| =.",
"l ^ %.v j / a v.| ' W.i e.m.I.v _ _ @.j >.%.z ] :.^ { A.+.x Q.{ O.v g.H F._ <.V.,./ s.:.R.=.&X*.b./ @.V.( { !.{ E S.{ _ |.{ { $.",
"h / _ _ l / E.+.;.:.~ L.e.m.I.) G G ^ l ;.K v $.] ^ { ( @.x @.` X.j K.x.;.E | x.] $.<.@.@.].E.' %.k ^ L./ { 1.) l ( / v { X.) ( ",
"k ) e.v _ / tXE.| / h /.V x.y >.m.t.>.E <.=.h | E ' $.o.&.k v x./ H K.@.^ / X.o.) _ ;.L.' { l l #._ j U.l ^ 1.l h h / k { { ;.^ ",
"y ) I.c l ^ S.=.| _ E =.e.@.v l x.%.;._ #.' L o.l k { O.%.k z k ..h M H #.{ -.,./ y ` V.;.{ l I.x.<.h M E.! 1.j z y | k { { ..$.",
"e ^ ^ v H ] $.:.,.k h Q !.l G Q V.=.| n.v l ! { l k / { _ G x l X.E B %.l X.!.S.v j v P b.^ v b.S.( C >X3Xk  .j z y ) ^  .) X.( ",
"z E ) v z k ( { O.k y V.%._ z H x.#.) O.z E x { ( h ) ..E F *.k { j d l k { | B.~ x.j P l.E v E $.^ y.*X] z  .y z r ^ $.D.( { E ",
"x h ^ &.D y Q { oXD y x.b.Z.E b.-.( l { H E j ) ' E ^ O.' D H l ] r j r { { ] m.b.%.a e.u.&.H a l v w.] ^ C v r h.q.z | =.' { ^ ",
"d ! ^ ^ a n E O.D.h j i $.%.^ E ' ( #.^ l y x ^ E / z '.{ z _ ^ $.b z Z ] O._ x._ %.V a q.( g.z E k s | H 6 v e K.#Xa X.@.:.{ &.",
"e x.E ( a i R 1.] y l < ( Q Q ] ( ( E ] h h +.l E [ r '.) r #.:.' r.a.r./ ..1.P v +.B e.V | C y l v.3Xx.F : v z L.Y.E.} ! _ ] z ",
"z ` v ( k a (  X>.l Q u.^ G.+. .E ( } E y c m.f l ^ d ] ' y b.=.k @X9.6 ' O.H.; j +.J v.#X;.r y k Q.B.P r : k z I.v G :.G z #.s ",
"r a E ( h ^ ( 2.,.] f w.R Q x *.E ] X.E j m.s.r ;.F I._ S.G j.^ y +X9 e _ {.| 9 l.H e.E iXoXr D ~.C.C.i y ; E p P.v r ,.:.G ' F ",
"z u l E E E E | o.' v #.W ' a I.Q ' ;.*.l H L j ) j $.+.] Q L ( c L $ ; v {.) a z v e.R.uX@.e ^.*.$.F.9 r d | +XZ ;.9 >.y v.Q D ",
"( u.c -.:.k E :.eX) ! ( h h v z.E ( ] P k M D ( a k ] J O.( $.j v a * 6 +.qX) L y Q I.yXv.&.j.b.h ;.] i 6 ! [.Z.H %.z #.j l l G ",
"{ ^ r Q.,.H E Q { ) >.) f z =.d.( ( ( d h 9.r ] - h $.3.,.=.] M v i 3 n !.' { ;Xf l | 2X%.z -XW.C._ ^ ; 6 ;.{._ C.+.a l ^ h j u.",
"{ l r ] } x.G.Q [ l O.l Q p H 4.[ ( ' < r < l :X: y ] B 1.S.Q M k u = f.H.x ( u.c P.O.+XH.~.x E Q ] :.n V ,.,.! ^.=.{ E ;.V h <X",
"| A ^ ] :.l ) k ' R { f R.8 Y.w ) k v , t u { r r a ' i O.-.S.M k 6 9 *XK G ] a L ~.Q.s.tX>.y R l | ] j.C  .H.%.H.] { _ { l.Y.u.",
"..h { l ' *.) k #.l ;.Q ! K.~ % E z H : a r { 8 e a _ r { :.*.u h 7.Y.,Xu.m.[.*.e.m.R.~.b._ e ' ' :.J.+XP.! <.P | ] ^ Q  .Y.5Xm.",
"O.l ..r E H X.E 1./ ..( a.1XE + h r z : a ^ X.V V *X' e.)  XH a M 9 =X,X9.Y. .r k M Q !.y k r Q :.Q -.P.x v x v [ ' ^ E Q yXb OX",
"O.l X.6 k e (.h <.E  ._ a.L.#.- r y f : e X.j M M @.-.x { '.~.a B V h.m.Z b._ 7 ^ r wXv : / z c oXa [ ~.k ' %.' { l ^ :.Z.e.u 0 ",
"O.E (.6 x u { f <.} { l q.*.C.> e f H 6 k ^ h V 3 ( ] e k _.1XZ N Q.U.^.P ! g.q v u.1.L 6 ;.k H ,.p { Q.N.<._ l { z Q *.R.L V < ",
"o.) / ! J L { N.oX(.X.h z ^ D.r.: y #.e } r k q.5.=.' J z ].K.9.r.R.9.I.D _ K.Z H C.{ z 8 %.! Z.} M { z q.;.l s [ y h E.Q c 8.Z ",
"#.X.h ' J f { v  X).} f v E ' H e h ( f / - E %.< ^ Q w.Q '.U.y.m.K @Xw.n x J F.<.a ( a 0.x.Q.y -.< E P M ,.r h [ D c c z e 0 G ",
":.) t ' < H ) h |.( [ a Q E E ( e h R ' , X ( #.: R Q +Xm.,.Y.tX;.8 #Xw.e #.r O.v %.l D i <.( h ^ 8 Q x.r '.a c | h a z h < 8 a ",
"{ E : ^ , l W h O.e ( y ( E k ) y k H C.6.3.{ #.e y ' G G ,.*X=.k 8 1XP z / j F.r E e e.0 ) E 1.k % R ~ D X.a h } %.8.D f B s.a ",
"{ r e R % C.h r [ e E f [ h y h { c z k 8.# ( *.t z E ! z H.eX] < u yXv z E { Q p ( - G z ( |...r < R v `.X.c r ( E C %.e * J A ",
"{ r f h % | e h } f ( j { f r l { i ) l r & E $.y #.x.z y -XC.] 9.v 3XN.8 / ( t p l , c l v wX{ y y l { ].(.y r > Q e +.A N +.m.",
"} h t f % ] - } (.( } k { r e E ) ' Q k 6 % #.O.R.v pXG a XX:.l z 8 *X:X8 { L : e g M c Q ~ +.{ { D h (.E ).t e % Q r h 5.0 Q 0.",
"{ h y k 0 ' M (.).[ ) $.( e b Q h (.9 h ; y.~ '.E H oXH D.H ;.h M ; Q.*.< { V e l D #Xx.Q '.a { ( h f W | } - u % C *.f e.p.a D ",
"G ) r k : R h ( ).[ ' ( E D s.z E X.8 l 5.H H X.l 8 { W ,.k | t 7.u C.%.u E n y ( ! u *.*.:.c } l ' f E '.h 8 : % < l k $.3 e z ",
"A } J f : l E h _.=.k E ( h 5.i ( y { f m.E H wXh I.X.:. .6X' u 0 5.*.G k a B r ) Y.r.;.H.9.h { g c h R } @ : : ; 8 r } r 0 V m ",
"c E h f : W E y _.l ( E D h 4.b E 6 E w.v ( a 9Xl e X.^.E R E b 2 J ' F E = 9 M ( S J `.) >X! ( : A h t E 2 : e e V S ] , b : a ",
"E y ) D p ( ! e _.h } R 6.#XS 0.E r M } 6 ( J qXQ n { $.) b.R p @ x.E l #., 4.: ' b H { ( y.=X#.e e h : h 2 : , e % L c < , > a ",
"( r W v f [ f y ).k } k 4 k.f V G l < ) t ' L 0Xl G [  .(.Q R u > Z.k c h < d.: W N l ) ' m.~ 8XJ M e A l + - - t % Q R , 3 0 b ",
"} f t ( t [ p e } Q } y a ( e f N k + v.j _ a 0Xz F ( E (.' f 8 = C.c -.r V N r ~ 4 ( { H c r E.iXx.u p R X @ , p - R ( e : V J ",
"{ t % ( y -.y.2X[.-.} h z { % a 2 l i p S.| E _.Z.%.Q k { Q f M * #.] W ; b % f f e { { : l k f %X8X7._ W % % J L y a Q u % r.r.",
"' t > f ] [ V v (.E [.*.j ) , V B r k > k Q.( ).E F.m.h { W l e J ( [ R ; < > k u  .[ W : R k t J :X<X:.W ; 8 : y f i z a % r : ",
"_ E < i { ( % E .XW } R E ) r OX7.u k + f ,.E } ( <.k R [ E R : a ( [ p ; % + Q u | ( R : ( k V k x.7XQ.E + f % y u t.s.f @ : : ",
"M r h z  .W ; R N.) { r ( { : 4X0 p l 1 z '.( { { rXv [ ( ) c u ! { ) 6.- 1 1 ! D R [ #.! R k a E ; z.6XQ r : % e S a 4.f : - 8 ",
"b t - a { [ e c p.{ ( f [ ) , OXN r l 9 8 _ [ [ [ } [ } E } g : 1.[ E d.- & X m g h ( r : { k f h : M R.Z.< < % : : h & M e + e ",
"p r < 6.p [ l a i.( k z E { e 9., l k * x Z E W ( ) X.[ ) ) p e 1.W a 8.9 O + y R y R 6 % W W h f u a e.Q.J - - - : h O N : X e ",
"i e D OX4 E ( { y.[ k x.f [ f 7.t e l = K $.6 E { ( { ( ) Q V g J.( 9 J @ & b y E h f r % E } l E - J ( k.Q.: b 4 p z # r : @ t ",
": - e w.p.;Xk ( O.`.' L t } e 7.e 6 E = %.( z W X.( ^ f } Q J c 1.( * 0.%   < f R l f e p E E R k @ L v m Z.m.e >XK.b ; e a % y ",
"D + : z 5XyXg %.E ,.eX8Xv } h b B e y ; +.z h E (.( E - X.E S c ( R + 7.0 . e y f l R : : R k R R < ! b M D 6XM w.b p f * k * h ",
"N.N a P L p J f E [  .F.$.{ f e < u e e G : h W }.D.^.p O.k M k E h $ 5 >Xo f t f f E < - h h f f 6 k 2 M F P.V f 6 f p @XQ > y "
};
