/* XPM */
static char *_9f0c8aa9ba64d30fc54f0d7b2a194819gSYmv5D9Ad3wUwr[] = {
/* columns rows colors chars-per-pixel */
"64 64 142 2 ",
"   c None",
".  c #040303",
"X  c #0B0204",
"o  c #080608",
"O  c #0A0A0A",
"+  c #110306",
"@  c #140409",
"#  c #1B040B",
"$  c #100D0E",
"%  c #141413",
"&  c #1C1A11",
"*  c #181718",
"=  c #1C1C1C",
"-  c #23060E",
";  c #201A0F",
":  c #240610",
">  c #2C0713",
",  c #2D0815",
"<  c #320716",
"1  c #320816",
"2  c #3C091B",
"3  c #2E260F",
"4  c #322B0C",
"5  c #232323",
"6  c #2C2C2C",
"7  c #302F30",
"8  c #333333",
"9  c #3A3A3A",
"0  c #420A1D",
"q  c #470920",
"w  c #4A0A21",
"e  c #530C25",
"r  c #580B27",
"t  c #560D28",
"y  c #5F0C2A",
"u  c #640D2C",
"i  c #6A0D2E",
"p  c #6F0E31",
"a  c #740C33",
"s  c #7A0E35",
"d  c #7F0E38",
"f  c #7D1039",
"g  c #444444",
"h  c #4A4846",
"j  c #4C4C4C",
"k  c #545454",
"l  c #5B5B5B",
"z  c #605F60",
"x  c #656565",
"c  c #6C6C6C",
"v  c #747474",
"b  c #7C7C7C",
"n  c #840E3B",
"m  c #890F3C",
"M  c #87103D",
"N  c #8C103E",
"B  c #8E0F40",
"V  c #931041",
"C  c #9F1147",
"Z  c #AC0F4B",
"A  c #B40F4F",
"S  c #A11047",
"D  c #A41149",
"F  c #AC124D",
"G  c #B2114D",
"H  c #B51151",
"J  c #BB1252",
"K  c #C31256",
"L  c #C61358",
"P  c #CC1159",
"I  c #D4125D",
"U  c #D9125F",
"Y  c #DD0F61",
"T  c #DD1261",
"R  c #E70D63",
"E  c #E80E64",
"W  c #E31163",
"Q  c #B19A1A",
"!  c #BDA11A",
"~  c #C6A917",
"^  c #C3A918",
"/  c #838383",
"(  c gray55",
")  c gray59",
"_  c #959595",
"`  c #959594",
"'  c #989798",
"]  c #9A999A",
"[  c #9A9A9A",
"{  c #9D9D9D",
"}  c #9D9C9C",
"|  c gray63",
" . c gray65",
".. c #A3A3A3",
"X. c gray67",
"o. c #ABACAC",
"O. c #ABABAB",
"+. c #B7B7B7",
"@. c #B4B4B4",
"#. c #B9B9B9",
"$. c gray72",
"%. c gray74",
"&. c gray75",
"*. c #B9B9B9",
"=. c #C3C3C3",
"-. c #C3C3C3",
";. c gray79",
":. c #CBCBCB",
">. c #CECECE",
",. c #CCCCCC",
"<. c gray82",
"1. c LightGray",
"2. c #D5D5D5",
"3. c #D4D4D4",
"4. c #D8D8D8",
"5. c gray87",
"6. c #DCDCDC",
"7. c #E2E2E2",
"8. c #E4E4E4",
"9. c #E5E4E5",
"0. c #E6E6E6",
"q. c #E7E7E7",
"w. c #E3E3E3",
"e. c #E9E9E9",
"r. c #EAEAEA",
"t. c gray93",
"y. c #EEEEEE",
"u. c #EFEFEF",
"i. c #ECECEC",
"p. c gray95",
"a. c #F3F3F3",
"s. c gray96",
"d. c gray97",
"f. c #F4F4F4",
"g. c #F8F8F8",
"h. c gray98",
"j. c #FBFBFB",
"k. c gray99",
"l. c #FDFDFD",
"z. c #FEFEFE",
"x. c white",
"c. c #FEFEFE",
/* pixels */
"                                                                                                                                ",
"                                                                    O O                   .                                     ",
"                                                                . X 2 < . .       O . . O O . %                                 ",
"                                                              . - G W W D # . . . * v #.7.y.c .                                 ",
"                                                              X J R R R R F X O ) a.k.k.k.k.e.O                                 ",
"                          . . . . . .               . . . . . i R R R R R R s . ;.k.k.k.k.k.k.l .                               ",
"                        . 8 ;.5.&.b 9 O . . O . . . O * 5 O X J E R R I S H L @ z e.j.k.k.k.k.) .                               ",
"                      O O >.k.k.k.k.j.2.b % O k ( #.4.y.j.9 > W R R P > # + , X . * k ;.=./ l 8 .                               ",
"                      . 9 g.k.k.k.k.k.k.k.d.d.k.k.k.k.k.j.8 r E R R m 1 T 0 @ p D M > . . @ < < # .                             ",
"                      . x k.k.k.k.k.k.k.k.k.k.k.k.k.k.k.j.5 a E R R m > D X D R R E P # 2 I W W I i .                           ",
"                      . v k.k.k.k.k.k.k.k.k.k.k.k.k.k.k.j.6 u E R E P > X , W R R R R i > K R E R I #                           ",
"                      . v k.k.k.k.k.k.k.k.k.k.k.k.k.k.k.k.l - T R R R I 0 0 E R R R R a . @ A R R R , O                         ",
"                      . j k.k.k.k.k.k.k.k.k.k.k.k.k.k.k.k.&.O e J P H f @ # I R E R T < e e i R R I #                           ",
"                      . * | &.k.k.k.k.k.k.k.k.k.k.k.k.k.k.k. .O X X X * v % w I E W i . u > m R R C .                           ",
"                        . . / k.k.k.k.k.k.k.k.k.k.k.k.k.k.k.k.q.O.{ &.a.k.#.6 @ 2 : @ e w a T R I , O                           ",
"                        . % q.k.k.k.k.k.k.k.k.k.k.k.k.k.k.k.k.k.k.k.k.k.k.k.y.O.v % t R R E R T w . O                           ",
"                        . ` k.k.k.k.k.k.k.k.k.k.k.k.k.k.k.k.k.k.k.k.k.k.k.k.k.k.k.o.$ M I W K w O h .                           ",
"                      O % q.k.k.k.k.k.k.k.k.k.k.k.k.k.k.k.k.k.k.k.k.k.k.k.k.k.k.k.k.[ O @ - X = +.<.O                           ",
"                      . j k.k.k.k.k.k.k.k.k.k.k.k.k.k.k.k.k.k.k.k.k.k.k.k.k.k.k.k.k.k.2./ v [ q.k.d.6 O                         ",
"                      . ( k.k.k.k.k.k.k.k.k.k.k.k.k.k.k.k.k.k.k.k.k.k.k.k.k.k.k.k.k.k.k.k.k.k.k.k.k.k O                         ",
"                      . =.k.k.k.k.k.k.k.k.k.k.k.k.k.k.k.k.k.k.k.k.k.k.k.k.k.k.k.k.k.k.k.k.k.k.k.j.-.9 . . . . .                 ",
"                      . q.k.k.k.k.k.k.k.k.k.k.k.k.k.k.k.k.k.k.k.k.k.k.k.k.k.k.k.k.k.k.k.k.k.k.4.= O O . O                       ",
"                      O d.k.k.k.k.k.k.k.k.k.k.k.k.k.k.k.k.k.k.k.k.k.k.k.k.k.k.k.k.k.k.k.k.k.k.a.#.2./ .                         ",
"                      O d.k.k.k.k.k.k.k.k.k.k.k.k.k.k.k.k.k.k.k.k.k.k.k.k.k.k.k.-.5 k d.k.k.k.k.k.k.` .                         ",
"                    O . / ) =.k.k.k.k.k.+.c 5.k.k.k.k.k.k.k.k.k.k.k.k.k.k.k.k.k.x . . -.k.k.k.k.k.y.x .                         ",
"              . . . . . * 8 l d.k.k.k.y.= . l k.k.k.k.k.k.k.k.k.k.k.k.k.k.k.k.k.v . . -.k.k.k.k.2.= . . . . O                   ",
"                      . / d.j.k.k.k.k.7.O . 6 k.k.k.k.k.k.k.k.k.k.k.k.k.k.k.k.k.2.6 k d.k.k.k.k.k.5.= .                         ",
"                      . g j.k.k.k.k.k.a.8 . c k.k.k.k.k.k.k.#.l j ' k.k.k.k.k.k.k.k.k.k.k.k.k.k.k.-.O                           ",
"                      % O @.o.5.k.k.k.k.q.#.a.k.k.k.k.k.k.<.& Q ~ 3  .k.k.k.k.k.k.k.k.k.k.k.k.e.5.l .                           ",
"                      O . . j >.k.k.k.k.k.k.k.k.k.k.k.k.k.>.; ! ~ 4 O.k.k.k.k.k.k.k.k.k.k.k.k.c . . .                           ",
"                  O . O . . =.k.k.k.k.k.k.k.k.k.k.k.k.k.k.k. .j h ) k.k.k.k.k.k.k.k.k.k.k.y.( l % . . . .                       ",
"                          . 8 q.7. .d.k.k.k.k.k.k.k.k.k.k.k.k.k.k.k.k.k.k.k.k.k.k.k.k.k.y.9 O 5 . . O     .                     ",
"                            . % O g y.k.k.k.k.k.k.k.k.k.k.k.k.k.k.k.k.k.k.k.k.k.k.k.k.k.) O o.j.( 5 5 O .                       ",
"                            . . . { j.k.k.k.k.k.k.k.k.k.k.k.k.k.k.k.k.k.k.k.k.k.k.k.k.a.j % e.k.k.d.j.;.6 .                     ",
"                        % . %   . . 9 @.e.k.k.k.k.k.k.k.k.k.k.k.k.k.k.k.k.k.k.k.d.2.( = . % q.k.k.k.k.k.5.O                     ",
"                      O O           . . = k ( #.y.k.k.k.k.k.k.k.k.k.k.k.a.<.{ x 8 O . 8 l . ` k.k.k.k.k.k.g O                   ",
"                                      . . . . . . 5 9 k x c v c c l g 6 O . . X . 6 =.k.j.j % <.k.k.k.k.k.h O                   ",
"                                  . . 5 v h . u p 0 . 5 * % O O O * 6 g 8 # D K 0 % >.k.k.q.= 8 a.k.k.k.a.%                     ",
"                              O . 9  .d.2.O e R E P @ O.k.j.j.d.j.k.k.k.k y R R L # g d.k.k.O.. / k.k.j.c .                     ",
"                            . O [ f.k.j.j @ L E E R y 5 5.k.k.k.k.k.k.` @ J R R R V . | k.k.j.c O =.k.( .                       ",
"                          . . 5 ;.k.k.-.O s E R R R T w * ( >.q.5.+.l @ B E R R R W 2 5 y.k.k.e.6 6 x . O                       ",
"                        . 6 @.* %  .j.h - T R R R R R Y m : O % $ X q J R R R R R R D . [ k.k.j./ . .                           ",
"                      O * 4.k.5.g . l . d E R E E E R R R T J Z G P W R R R E R R R T 1 9 j.-.k O .                             ",
"                      . ( k.k.k.a.v . + L R R E E E R R R R R R R R R R E E E E R R R V . 5 . .                                 ",
"                      O a.k.k.k.k.a.6 0 W E R E E E E E E E E E E E E E E E E E E R R I # .                                     ",
"                    . 6 k.k.k.k.k.4.. M R E E E E E E E E E E E E E E E E E E E E E R R w .                                     ",
"                      O e.k.k.k.k.{ . L R E E E E E E E E E E E E E E E E E E E E R R R n .                                     ",
"                      . k a.k.k.k.x - W R E E E E E E E E E E E E E E E E E E E E E R R G .                                     ",
"                        . 8 b ) v % 0 E R E E E E E E E E E E E E E E E E E E E E E E R I X                                     ",
"                          . . . . . u R R E E E E E E E E E E E E E E E E E E E E E E E W # .                                   ",
"                                  . a R R E E E E E E E E E R E R E E E E E E E E E E E W < O                                   ",
"                                  . d R R R R R R R E R R R R R R R R R R R R R R R R R E 2 o                                   ",
"                                  . e F J P I U T T W W W W W i N W W T T U U I P K H S m # O                                   ",
"                                  . . . . . X X + @ @ # # # # X X # @ @ + + X X . . . . . . .                                   ",
"                                  . x ;.+.O.{ ) ( / / b b b v $ 5 b / / ( ` [ | O.+.-.<.7.7 =                                   ",
"                                  . v k.k.k.k.k.k.k.k.k.k.k.d.6 k k.k.k.k.k.k.k.k.k.k.k.k.6 6                                   ",
"                                  O k k.k.k.k.k.k.k.k.k.k.k.d.6 k k.k.k.k.k.k.k.k.k.k.k.a.O =                                   ",
"                                  * % a.k.k.k.k.k.k.k.k.k.k.d.6 k k.k.k.k.k.k.k.k.k.k.k.@..                                     ",
"                                    . v j.k.k.k.k.k.k.k.k.k.y.= 9 k.k.k.k.k.k.k.k.k.k.a.9 .                                     ",
"                                    O . c <.j.k.k.k.k.k.k.7.l . . / i.k.k.k.k.k.k.e.o.9 .                                       ",
"                                      . . . % 8 j l k h 6 . .   * . O 6 g h g 8 = . . .                                         ",
"                                              . . . . . O             O . . . . O                                               ",
"                                                                                                                                ",
"                                                                                                                                "
};
