/* XPM */
static char *_ac6e5b7f4834e06e1b3da61de7e654cgEr6c5C1Lk8Cp82E[] = {
/* columns rows colors chars-per-pixel */
"64 64 182 2 ",
"   c None",
".  c #190F0F",
"X  c #1B120E",
"o  c #1D1A0F",
"O  c #161312",
"+  c #1D1514",
"@  c #1D1914",
"#  c #1C1718",
"$  c #1D1A19",
"%  c #22150F",
"&  c #2F140F",
"*  c #33130F",
"=  c #3C110F",
"-  c #230F13",
";  c #231514",
":  c #2B1514",
">  c #221915",
",  c #2C1913",
"<  c #241619",
"1  c #2C1619",
"2  c #231A1A",
"3  c #2A1C1C",
"4  c #331413",
"5  c #3B1413",
"6  c #341913",
"7  c #3C1816",
"8  c #341618",
"9  c #381518",
"0  c #23211A",
"q  c #262321",
"w  c #2A2221",
"e  c #332826",
"r  c #43150F",
"t  c #460F14",
"y  c #4B0F17",
"u  c #4C0F19",
"i  c #550F14",
"p  c #5D0D14",
"a  c #441315",
"s  c #4C1215",
"d  c #441319",
"f  c #4D121A",
"g  c #521215",
"h  c #5A1116",
"j  c #55141A",
"k  c #5E1219",
"l  c #630E15",
"z  c #6D0E16",
"x  c #640E1A",
"c  c #6B0F1A",
"v  c #730D16",
"b  c #730E1A",
"n  c #7A0E1A",
"m  c #641219",
"M  c #6C101A",
"N  c #721017",
"B  c #73101A",
"V  c #7C101C",
"C  c #850D1B",
"Z  c #8D0C1C",
"A  c #970B16",
"S  c #940C1D",
"D  c #9B0A1E",
"F  c #A2071E",
"G  c #AB071F",
"H  c #A50A1E",
"J  c #AB091E",
"K  c #B3071C",
"L  c #BD061C",
"P  c #B3091F",
"I  c #BA081F",
"U  c #8D0C21",
"Y  c #990720",
"T  c #950C22",
"R  c #9A0B20",
"E  c #AC0621",
"W  c #A40A21",
"Q  c #AC0922",
"!  c #B60622",
"~  c #BE0624",
"^  c #B30922",
"/  c #BA0923",
"(  c #BD0728",
")  c #B80828",
"_  c #C2081D",
"`  c #D3051E",
"'  c #DC051F",
"]  c #E4021E",
"[  c #E9021E",
"{  c #C40623",
"}  c #CC0523",
"|  c #C40923",
" . c #CD0825",
".. c #C40828",
"X. c #D30620",
"o. c #D30422",
"O. c #D40523",
"+. c #D80322",
"@. c #DB0720",
"#. c #DC0521",
"$. c #DF0423",
"%. c #DA0325",
"&. c #DF0427",
"*. c #DB0423",
"=. c #DE0821",
"-. c #D40629",
";. c #DC0528",
":. c #DE0529",
">. c #E30021",
",. c #E30121",
"<. c #E20220",
"1. c #E10022",
"2. c #E00322",
"3. c #E30322",
"4. c #E40020",
"5. c #E50020",
"6. c #E40120",
"7. c #E50120",
"8. c #E40021",
"9. c #E50021",
"0. c #E50121",
"q. c #E40121",
"w. c #E60020",
"e. c #E70120",
"r. c #E60021",
"t. c #E70021",
"y. c #E60121",
"u. c #E50321",
"i. c #E70221",
"p. c #E60321",
"a. c #E40022",
"s. c #E50022",
"d. c #E50023",
"f. c #E40123",
"g. c #E60022",
"h. c #E70022",
"j. c #E60122",
"k. c #E70122",
"l. c #E60023",
"z. c #E60123",
"x. c #E70123",
"c. c #E50223",
"v. c #E50322",
"b. c #E70223",
"n. c #E20521",
"m. c #E10423",
"M. c #E20423",
"N. c #E50621",
"B. c #E70621",
"V. c #E40422",
"C. c #E60422",
"Z. c #E60024",
"A. c #E60324",
"S. c #E40227",
"D. c #E70227",
"F. c #E10424",
"G. c #E20526",
"H. c #E50527",
"J. c #E60122",
"K. c #E90120",
"L. c #E90221",
"P. c #EA0321",
"I. c #E80023",
"U. c #E80123",
"Y. c #EA0122",
"T. c #EB0023",
"R. c #EA0123",
"E. c #E80222",
"W. c #E90222",
"Q. c #E80223",
"!. c #EB0523",
"~. c #E90024",
"^. c #EB0125",
"/. c #EA0127",
"(. c #EA0227",
"). c #EC0224",
"_. c #E90122",
"`. c #E00328",
"'. c #E30428",
"]. c #E40329",
"[. c #EC0228",
"{. c #F00222",
/* pixels */
"                                                                                                                                ",
"                                                                                                                                ",
"                                                                                                                                ",
"                            e                                                                                                   ",
"                      + ; % % ; + ; 2 +                                                                                         ",
"                  2 + + > > > > ; @ < < + ;                                                                                     ",
"                q ; < + = V Y Z N s 1 + ; < +                                                                                   ",
"                + > 4 b } M.j.N.=.} J v 5 @ 2 ; 3                                                                               ",
"              + ; : n `.j.j.j.,.'.U.j.,.! x : 2 + e                                                                             ",
"            2 > ; m +.j.j.U.U.j.,.j.] ] N.&.Z 4 > ;                                                                             ",
"            ; > 5 ~ j.,.j.j.j.j.j.j.j.j.U.U.#.D 6 ; @                                                                           ",
"          + < @ V M.j.j.j.j.j.j.j.j.j.j.j.j.j.#.S : < @                                                                         ",
"          + < 5 | ^.U.j.j.j.j.j.j.j.j.j.j.j.j.,.G.b % ; 2                                                                       ",
"        < ; + b ] ,.,.j.j.j.j.j.j.j.j.j.j.j.Z.^.] { a > +                                                                       ",
"        + + , ^ j.j.j.j.j.j.j.j.j.j.j.j.j.j.j.j.j.j.Z ; + 0                                                                     ",
"        + @ p %.] j.j.j.j.j.j.j.j.j.j.j.j.j.j.,.j.U.} a 1 +                                                                     ",
"      # > < S ] ] j.j.j.j.j.j.j.j.j.j.j.j.j.j.j.j.j.N.C > ; $                                                                   ",
"      $ ; 4 ~ ] j.j.j.j.j.j.j.j.j.j.j.j.j.j.j.j.j.j.U.{ 6 : ;                                                                   ",
"    # < @ g ;.U.j.j.j.j.j.j.j.j.j.j.j.j.j.j.j.j.j.j.j.H.m < ;                                                                   ",
"    + < > Z ^.j.j.j.j.j.j.j.j.j.j.j.j.j.j.j.j.j.j.j.,.[ Z ; ; +                                                                 ",
"    < > , ! U.,.U.j.j.j.j.j.j.j.j.Z.j.j.j.j.j.j.j.j.U.[ Q : ; +                                                                 ",
"    ; @ a X.j.j.j.j.j.j.j.j.j.j.j.Z.j.[ N.N.!.j.j.j.Z.[ { 9 ; +                                                                 ",
"  3 ; @ b M.,.j.j.j.j.j.j.j.j.j.] ] @./ S C J X.G.^.Z.).^ 4 ; < ; 2                                                             ",
"  > ; % W j.,.j.j.j.j.j.j.j.j.,.#.L l 8 ; @ ; l ( ;.-.E s ; ; ; ; < 2 + + $                                                     ",
"  ; < 4 | j.j.j.j.j.j.j.U.U.N.H.G 5 : $ @ @ # ; 5 x g , + > 2 @ + + # $ + ; ; @                                                 ",
"  ; < s ` j.j.j.j.j.j.j.j.] !.I 5 ; < d M m 4 < > < o ; 2 > 4 g n S R n g , > 2 2                                               ",
"  ; @ z ] j.j.j.j.j.j.j.Z.] ^.C @ : k { !.M.S @ > ; ; 2 ; k Q ].!.[ P.^.O.S 5 ; < ; w                                           ",
"  ; @ Z U.,.j.j.j.j.j.j.^.] U.c @ > J ^.] U.( 1 ; @ ; & Z %.j.,.U.[ ] j.j.Z.^ a @ ; ;                                           ",
"w > ; J !.,.j.j.j.j.j.j.j.U.[ N @ + F ^.[ !.S < > @ 9 D &.j.Z.Z.j.j.j.j.j.,.[.P 7 2 + ; w                                       ",
"+ ; 4 { U.j.j.j.j.j.j.j.j.j.[ S @ @ g E  .J r % @ 4 D j.] j.Z.Z.Z.j.j.j.U.j.j.`.Z , ; < < ; < ; < ; + ; ; ; + + 2 w             ",
"X ; 5 O.] j.j.j.j.j.j.j.] `.[ { a ; ; 4 5 4 $ < @ b `.] U.Z.Z.Z.^.j.j.j.j.U.] j.+.h ; 2 < < + @ ; > 2 < 2 < ; ; ; ; < + 3       ",
"; > a %.j.,.j.j.j.j.j.j.j.j.j.j.H 4 > 2 ; ; < > 6 | N.j.U.j.j.j.j.j.j.j.j.U.U.U.,.R % : @ 4 h Z F H D C c f 4 < 2 2 ; ; ; +     ",
"; > d %.U.j.j.j.j.j.j.j.j.j.j.] ,.) M 5 : < + @ m M.j.j.U.j.j.j.j.j.j.j.j.U.U.U.#.} 5 + ; S #.H.U.U.P.U.,.@.} W V g : @ < + $   ",
"+ > 7 O.U.j.j.j.j.j.j.j.j.j.j.j.] #.#.{ j < < > S ] ] j.U.j.j.j.j.j.j.j.U.U.U.U.Z.+.g 2 4 / [ U.] ] ] ] ] ] ] ,.G.X.J k < 2 +   ",
"+ > 9 } ] ,.U.j.j.j.j.j.j.j.j.j.] j.j.[ ^ @ 2 : Q ] j.j.j.j.j.j.j.j.j.j.j.U.U.j.,.@.k < 5 ..j.Z.j.j.j.j.j.j.N.j.Z.] {.O.v > ; + ",
"+ ; ; F ] ] U.U.U.j.j.j.j.j.j.j.j.,.,.P.W ; < : ^ j.,.j.j.j.j.j.j.j.j.j.j.j.j.j.,.X.u + > T Z.M.j.U.j.j.j.j.j.j.j.j.U.j...9 ; ; ",
"+ ; ; h ;.j.j.j.j.j.j.j.j.j.j.j.j.] j.} g ; ; 1 ! U.,.j.j.j.j.j.j.j.j.j.j.j.j.j.P.P 4 ; + 5 S ,.[ ] j.j.j.j.j.j.j.U.j.j.H.h ; ; ",
"  + ; , H G.j.j.j.j.j.j.j.j.j.] N.].F s ; < 2 : ^ ] ,.j.j.j.j.j.j.j.j.j.j.j.j.,.^.C # < + < * Z `.,.] j.j.j.j.j.j.j.j.j.^.N @ - ",
"  + ; ; 5 D } ,.] j.j.j.j.j.#.} H l , ; < < # : S j.,.j.j.U.j.j.j.j.j.j.j.j.U.] } s @ < @ < @ 1 U H.j.j.j.j.j.j.j.j.j.j.U.B @ ; ",
"    ; < @ % s n T J ( ! W Z b s : X > < < < ; < B Z.j.j.j.U.j.j.j.j.j.j.j.j.,.^.Z ; 2 > a 6 < ; 5 W ^.j.j.j.j.j.j.j.j.j.^.c @ ; ",
"      ; : < > ; ; ; 1 1 < ; + $ < < + X + ; ; + d -.j.j.j.U.j.j.j.j.j.j.j.j.`.} s @ < s .._ s ; @ l `.j.j.j.j.j.j.j.j.^.%.a + X ",
"        O + ; ; < ; + ; > ; ; + O         w + > < S G.] U.^.j.] j.] ] j.,.U.&.C 1 ; % C P.] H < # t X.j.j.j.j.j.j.U.j.^.P ; < 3 ",
"            + + + + + .                     @ < ; a D Z.] ,.`.Z.U.`.U.j.N.H.Z 1 + ; + n !.[ J : @ y +.j.j.j.j.j.j.U.] j.z + <   ",
"                                              ; < > 4 N { ,.U.[ ] N.U.' _ v 6 ; ; : < a Q ..l < ; M j.j.j.j.j.j.j.j.j.) 4 > +   ",
"                                              2 % < > ; 5 N D ^ P J D m 5 ; + 5 j j 1 ; 4 9 ; ; 4 ^ ] j.j.j.j.j.j.j.`.M < < 2   ",
"                                                  ; > < > + < 1 1 : ; > @ < h / %.%.Y 4 2 < ; 4 A N.] j.j.j.j.j.,.,.E 4 2 ;     ",
"                                                    + 2 + 2 ; < < 2 ; > > z O.Z.Z.] M.Q z i z J M.N.U.j.j.j.j.U.j.} g ; ; +     ",
"                                                        2 + + + + + > > 4 ^ U.@.,.,.j.[ !.G.] U.M.G.j.j.j.j.j.U.#.Z > 2 +       ",
"                                                                  + @ > 5 ..U.j.U.j.j.j.Z.Z.^.j.Z.j.j.j.j.j.^.N.I 5 ; ; @       ",
"                                                                    2 > : Q j.j.j.j.j.j.j.j.j.j.j.j.j.j.j.j.j.#.h ; < +         ",
"                                                                      > + M ' !.j.j.j.j.j.j.j.j.j.j.j.j.j.] N.T < 1 +           ",
"                                                                      ; > = L [ j.j.j.j.j.j.j.j.j.j.j.j.j.j.P 9 ; ; w           ",
"                                                                      2 # > n j.j.j.U.U.j.j.j.j.j.j.j.] j.{ f > < $             ",
"                                                                        ; # a } j.j.j.j.j.j.j.j.j.j.] ] +.l @ ; ;               ",
"                                                                        1 @ ; n #.j.j.j.j.j.j.j.j.j.j.X.v @ : :                 ",
"                                                                          ; > * H !.N.j.j.j.j.j.j.j.O.b < < +                   ",
"                                                                            + @ 5 H M.j.j.j.N.N.^./ x < ; +                     ",
"                                                                              + > & V K ` ` ` / C 5 2 + ;                       ",
"                                                                                % @ ; 6 d y a 9 < ; + 2                         ",
"                                                                                  2 < ; ; + ; ; > >                             ",
"                                                                                        $ 2                                     ",
"                                                                                                                                ",
"                                                                                                                                ",
"                                                                                                                                "
};
