/* XPM */
static char *ba0da10d796b406db1845cfe1f8d05b8dkqdFrGMldQ9BBHJ[] = {
/* columns rows colors chars-per-pixel */
"64 64 255 2 ",
"   c None",
".  c #50522C",
"X  c #694C29",
"o  c #4B6E33",
"O  c #6A7032",
"+  c #52411F",
"@  c #527543",
"#  c #72704E",
"$  c #727373",
"%  c #775253",
"&  c #8A6732",
"*  c #957136",
"=  c #9E6D34",
"-  c #A43E42",
";  c #D53A47",
":  c #E03D4B",
">  c #904448",
",  c #B54D4C",
"<  c #8E506C",
"1  c #AE586E",
"2  c #997A7C",
"3  c #906F6E",
"4  c #AD6E79",
"5  c #846F5B",
"6  c #CF4F55",
"7  c #E5454D",
"8  c #EA4650",
"9  c #C55969",
"0  c #CA6871",
"q  c #94393D",
"w  c #4F9138",
"e  c #69983B",
"r  c #68853C",
"t  c #4DA737",
"y  c #51B33A",
"u  c #55BA3D",
"i  c #52AA3B",
"p  c #68A63D",
"a  c #6FBD3F",
"s  c #71BF3F",
"d  c #56924A",
"f  c #67994B",
"g  c #679754",
"h  c #749058",
"j  c #4EA04B",
"k  c #5CA74C",
"l  c #58A852",
"z  c #57B954",
"x  c #5ABB54",
"c  c #57B353",
"v  c #58B940",
"b  c #64AC4D",
"n  c #68A847",
"m  c #6FBD41",
"M  c #6AB449",
"N  c #70BA43",
"B  c #73AB5A",
"V  c #6CBC53",
"C  c #69B553",
"Z  c #70AC52",
"A  c #778F65",
"S  c #7AA762",
"D  c #70AD62",
"F  c #5E847F",
"G  c #74C142",
"H  c #6CC455",
"J  c #6DCB56",
"K  c #69C857",
"L  c #70C556",
"P  c #70C161",
"I  c #BF8536",
"U  c #86976A",
"Y  c #8E9072",
"T  c #87A36B",
"R  c #8DAC74",
"E  c #9A8D65",
"W  c #E0A375",
"Q  c #767D80",
"!  c #B95D90",
"~  c #986A88",
"^  c #A86988",
"/  c #B86885",
"(  c #A97989",
")  c #B7778B",
"_  c #BA7995",
"`  c #BB6399",
"'  c #BD6BA6",
"]  c #945D80",
"[  c #C25F9A",
"{  c #C27D98",
"}  c #CC7D85",
"|  c #C87DA4",
" . c #C76EAB",
".. c #76898C",
"X. c #629693",
"o. c #728E8E",
"O. c #57A29C",
"+. c #6CAFAA",
"@. c #5B908D",
"#. c #998688",
"$. c #999485",
"%. c #988C95",
"&. c #999699",
"*. c #878A8E",
"=. c #A6868B",
"-. c #A88C94",
";. c #BA8598",
":. c #A9969A",
">. c #B7969B",
",. c #B1938C",
"<. c #98B48D",
"1. c #A9AE91",
"2. c #9B9FA2",
"3. c #889DA0",
"4. c #BC8BAB",
"5. c #B88CA4",
"6. c #AD99A3",
"7. c #BB97A8",
"8. c #A88CA4",
"9. c #93ACAB",
"0. c #A8A5A9",
"q. c #B8A6A9",
"w. c #B9A6BB",
"e. c #B3B9B0",
"r. c #C7869A",
"t. c #C69798",
"y. c #D08E8F",
"u. c #CEA69D",
"i. c #CD8BAD",
"p. c #C787A6",
"a. c #D38AAD",
"s. c #C291AD",
"d. c #CA98A9",
"f. c #D397AC",
"g. c #D687B4",
"h. c #D788B4",
"j. c #C899B2",
"k. c #D697B9",
"l. c #C78DB5",
"z. c #E48AB3",
"x. c #E496BC",
"c. c #E78AAF",
"v. c #CAA8A9",
"b. c #D4AAAA",
"n. c #D6B8AC",
"m. c #CCAAB5",
"M. c #CBADBC",
"N. c #C8A5B5",
"B. c #D4AABD",
"V. c #D4A6B6",
"C. c #CBB4BB",
"Z. c #C9BAB9",
"A. c #D3BEBB",
"S. c #D6B8B6",
"D. c #C7B1AA",
"F. c #EAB2A7",
"G. c #E2BBBA",
"H. c #E4AFB0",
"J. c #E0A99F",
"K. c #AEC6B0",
"L. c #97C485",
"P. c #C9C5BA",
"I. c #D8C6B9",
"U. c #DACABD",
"Y. c #D7C4B9",
"T. c #C3D1BA",
"R. c #E7C7B7",
"E. c #EFD2BF",
"W. c #E7D2BE",
"Q. c #F0D3BF",
"!. c #F0CABB",
"~. c #DA9BC2",
"^. c #C68EC7",
"/. c #E39CC3",
"(. c #E49DCA",
"). c #E99DC7",
"_. c #E49FD0",
"`. c #D8A8C7",
"'. c #CEB8C2",
"]. c #D2BCC4",
"[. c #D9BCCC",
"{. c #D5B6C8",
"}. c #DDBBD2",
"|. c #CEADC2",
" X c #E6A2CE",
".X c #EAA2CC",
"XX c #E7AACB",
"oX c #E1B7C8",
"OX c #E6A4D1",
"+X c #E9A5D1",
"@X c #EAABD5",
"#X c #EBAED9",
"$X c #E5ABD4",
"%X c #ECB3DC",
"&X c #E9B6D7",
"*X c #EEBCE3",
"=X c #EEB6E1",
"-X c #F0BDE5",
";X c #F0BFE8",
":X c #A4D0CB",
">X c #AFCCE0",
",X c #D5C2C6",
"<X c #D5C4CB",
"1X c #D5CCCC",
"2X c #DAC9C9",
"3X c #DBD2C8",
"4X c #DDC6D3",
"5X c #DBCBD3",
"6X c #DCCBD6",
"7X c #DCD2D5",
"8X c #DCD6D6",
"9X c #CDCAC3",
"0X c #E7C7C5",
"qX c #F2CDCB",
"wX c #EDDECA",
"eX c #EAD4C7",
"rX c #F1D4C1",
"tX c #F2DAC8",
"yX c #E9C6D8",
"uX c #E4DCD3",
"iX c #E2D3DB",
"pX c #E3DCDA",
"aX c #EBD7D7",
"sX c #F3D5D7",
"dX c #F1CBD7",
"fX c #EAE4DB",
"gX c #F3EADE",
"hX c #F0E0D0",
"jX c #EFE0CB",
"kX c #EAC9E2",
"lX c #F1C8E4",
"zX c #EAD9E4",
"xX c #F2DCED",
"cX c #F1D2E7",
"vX c #EBE5E4",
"bX c #E5E8E1",
"nX c #EEEAE3",
"mX c #EEE4EB",
"MX c #ECE8E8",
"NX c #F5EDE2",
"BX c #F4E7E9",
"VX c #F6F1E5",
"CX c #FAF4E6",
"ZX c #F6F3EE",
"AX c #FCF6EA",
"SX c #FDF8EB",
"DX c #F2E6F1",
"FX c #F3E9F2",
"GX c #F6F5F2",
"HX c #F9F6F3",
"JX c #FBFAF6",
"KX c #FCFBF8",
"LX c #FAF7F8",
"PX c #D5D3E2",
"IX c #BBA5DD",
/* pixels */
"                                                                                                                                ",
"                                                                                      :.N.M.C.7.'.'.                            ",
"                                                                                    0.FXFXFXzX6XxXzX                            ",
"                                                                                      w.vX<X<X:.Z.*.                            ",
"                                                                                      e.KXKXKXP.jX                              ",
"                  4.4.s.4.s.4.4.4.s.4.s.s.s.4.s.s.s.4.4.4.s.4.4.s.4.s.4.s.s.s.4.s.s.s.C.KXJXKXP.wX>.s.4.s.s.s.4.8.              ",
"                l.+X%X.X.X X%X X.X X%XOX.X.X#X+X.X.X@X@X.X.X@X@X.X.X+X#X.X.XOX%X.X.X.X].KXHXKXP.wXf..X@X+X.X.Xk.}.w.            ",
"                `.-XlX=XOX=X*X=X_.=X*X-X X%X*X-XOX%X-X-X$X@X-X-X#X@X*X*X%XOX*X*X=XOX-X,XKXJXKX9XwXd.%X-X-XOX#X`.yXkX            ",
"              ~..X+X X.X.X X X X.X.X X.X.X X X.X.X.XOX+X.X.XOXOX.X.X.X X.X.X+X X.X.X+X'.JXZXHX3XwXf..XOX.X).z.j.{.5.w.          ",
"              k..X X#X.X.X X#X.X.X.X@X.X.X.X@X/.k.s.;.i.i.i.k. X.X.X X@X.X.X X@X.X.XOX].JXJXKXP.wXf..X@X/.z.a.`.7.~ [.          ",
"            ~ ).OX*X*X=XOX=X-X=XOX=X*X*XOX%X*X4XFXFX6X`.OX-X=Xk.$X$X-X-X%XOX*X*X=XOX-X].JXJXHXP.wXd.#X.X).z.a.}.( ^ ;.M.        ",
"            p.). X@X#X+X_.@X#X@X.X@X#X$X.X~.yXFXFXFXFX[./..X@X$Xi. X@X#X+X.X@X#X+X.X@X].KXJXJXP.wXr.z.x.x.z.p.4Xu.^ ^ {.        ",
"            (..X.X(.OX.X.X.XOX.X.X.XOX X XB.mXFXiXiXFXFX|.)..X(./.i..X X.X.X.X X.X.X.XC.KXHXKXP.wXr.c.z.c.c.j.{.J.y.^ 5.w.      ",
"G d       8.-X@X X%X*X#X X%X-X%X(.#X*X%Xj.mXDX5X|.7.4XFXFXN. X%X%Xk.~.*X@X X%X-X@X(.%X].JXHXKXP.R.| x.)./.x.{.V.F.F.4 ^ {.      ",
"G G N     $X=X@X X%X=X#X X%X=X%X X%X=X`.zXFXzX|.N.BX7XzXFXmX|.*X*XlXk.$X#XOX-X-X%X X=X].JXZXHXP.v.z.x.@X=Xk.yXd.F.F.t.^ 4.w.    ",
"G G m n Y .X(..X.X.X(..X.X.X/..X.X.Xk.6XFXmX'.m.sXHXHX1XmXFXzX`.%X#X.Xa./..X.X)..X.X.XC.HXJXKXZ.r.x.).)..Xi.yXu.F.F.!.( ^ w.    ",
"G s s N d.OX%X X.X X%X.X.XOX%X.X.X~.[.FXFX[.M.0XBXHXHXZX<XFXFXiX`. X.X.Xi.). X%X.X.X.XC.MXMXMX>./..X.X#X.XN.[.J.F.!.rX#.        ",
"s m m U OX-X*X%X X-X*X=XOX*XlX-X~.|.mXFXiXM.S.BXJXKXKXKXvX7XFXFX{.&X%XOX/.j.*X*X=XOX-X&X}.~.$X&X-X X=X*X$X[.oXF.R.rXtX$.        ",
"s s m ,..XOXOX X.XOXOX.X.X X X Xj.mXFXmXM.m.sXZXGXHXZXnXJXGXzXFXFX|.*XlX@X$Xk.@X.X.X.XOX X.X XOX.X.X.X@Xj.kXt.G.rXtXrX#.        ",
"a s Z k..X.X@X.X.X.X@X.X.X.X@Xk.zXFXDXC.B.aXHXJXGXMX4 q D.HX1XmXFXDX|.@X.XOX~.k..X.X.X@X.X.X.X@X.X.X.X@Xj.yXb.Q.!.rXR.2         ",
"p p R #X$X=X-X%XOX=X-X%XOX=X`.iXFXFX6XB.[.NXHX8X5X>., , > A.7X1XDXFXzXj..X.X.Xk. XOX=X*X%X X%X*X=XOX%X%X{.M.n.d.p.t._ _ <       ",
"m e 7.$XOX=X-X@X X%X*X@X X`.4XFXFXiX{.S.BXGX1X5Xq.#., - , - > 7X6XFXFXiXk.@XOX*Xk./.%X=X%X X#X=X%X X@X`.N.n.;.( ^ ) p._ ]       ",
"m s U k./.) ^ k.k.^ ) k.k.|.FXFXmX'.m.sXKXnX1Xq.9.e.:.%.> , > MX8XzXFXFX6X&XOX=X-Xi.p.< a.x.p.4 f./.p.( R.;.^ {.( k.~.i.~       ",
"m m m p e b.qXG.S.G.qXG.G.b.S.S.>.t.2XJXKX1X6X0.:Xe.0.+.F % v.pXKX1X<XD.q.d.f.d.d.v.n.0X0XG.S.qX0Xt.R.rXn.) ) {.;._ p._ ]   @ v ",
"m m m m n uXgXuX2Xv.y.t.Y.v.y.y.Z.uXpXKXJX1X'.:.q.q.Z.&.&.&.1XfXHXZXHXn.Y.CXfX2Xb.y.t.A.b.y.y.v.NXY.rXrXt.) ) j.;.i.k.i.3 d i u ",
"m m p p n fXgX1XaX6 7 S.aX6 7 r.'.pXpXKXHX1X<X:.e.3.0.X.X.o.iXpXKXHXHXn.I.VX1XvX6 7 S.FX9 7 r.M.AXY.rXrX;.p.^ < 4 r.p._ d u u u ",
"m m w o r P.3XFXf.8 0 HXb.7 6 yX'.pXuXGXGX7X5XN.3.X.2.O.O.2.1XvXHXZXGXn.I.3XFXS.7 0 FXS.7 6 }.M.SXY.Q.E.) i.) < < { p.( t u u u ",
"m p e e . o e.HX} 8 y.HXy.8 9 N.S.fXpXHXJXGX8X6X7...&.@...mX1XKXKXKXHXn.I.1XHXy.7 } LXy.7 9 j.S.SXY.Q.rXp._ ) < 4 i.;.i u u u u ",
"m p f O O U e.v.4 1 / { / 0 1 r.eXuXuXHXHXHXnX9XzX].M.,XiX<XGXHXJXJXHXY.I.pXq.) 3 %.-.2 $ $ ;.eXSXI.Q.E._ i.^ < ^ t.Y y y u u u ",
"m m N e X 1.uX,Xd.p.h.h.h.h.{ V.fXaXuXJXJXHXJXZX7X1X1X7X8XKXJXHXHXHXHXn.I.SXA.f.%.0.7.%.o...j.fXAXU.rXE._ { ) ) b.E.T y y y u u ",
"G s w o X 1.fX,Xd.a.g.g.g.g.{ V.gXeXpXJXHXZXHXHXKXJXHXKXKXJXJXJXHXHXHXn.I.SXA.d.=.6.6.-.%.#.j.gXSXU.rXE.;._ ;.n.rX1.y y y y y u ",
"e p N e X T VX,Xd.| g.g.g.h.{ V.gXeXpXHXJXKXKXKXJXHXGXHXHXHXHXJXKXvX].u.I.SXA.f.2.+.*...O.X.j.gXSXU.E.E.r.t.rXrXrXR y y y y y y ",
"a n h > > 2 CX].d.{ g.g.g.) 4 V.fX0X8XGXHXHXHXHXGXGXGXGXGXGXZX7X].4XkXb.I.SXA.f...O.*...O.X.N.gXSXU.E.rXR.tXrXn.u.f y y y y y y ",
"e D.<X[.[.,X5X<X,X{.[.[.[.].].,XiX4X<X5X5X5X5X5X5X5X5X5X5X5XN.yXkX$XkXv.hXSXA.V.( ( ( ( ( ( N.gXSXU.rXtXwXrXG.~.Y y y y y y y y ",
"r pXDXcXcXDXDXcXcXDXDXcXcXFXDXlXcXFXxXcXcXFXxXcXcXFXxXcXcXFX].kX~.k.kXv.I.SXpXm.m.m.m.m.m.m.C.VXSXU.rXrXrXrXV..XY y y y y y y y ",
"& zXDX@XXXDXDX+X@XDXxX.X&XDXxX.X&XDXcX.X&XFXcX.X&XFXcX.XyXFX].kX&X&XyXv.I.SXAXVXVXVXVXVXVXVXCXAXSXU.E.tXrXR.k.s.k y y y y y y y ",
"& zXDXxXxXDXFXxXxXmXDXxXxXDXDXxXDXFXDXcXDXDXDXcXDXDXFXcXDXFX].kX4XN.M.u.I.SXAXCXCXCXCXCXCXCXAXCXSXU.E.tXrXb.%X>.i y y y y y y y ",
"* >.4X4X5XiX7X4X4X4X5XiX6X4X4X4X5X7X6X4X4X4X6X7X4XyXiX4X7X7X7.s.^ {.|.u.I.SXSXAXNXuX2X3XfXVXAXAXAXU.Q.rXrXd..Xs.i y y y y y y y ",
"& # k./.#.mXzX>.x.x.-.FX5X;./.f.C.FX].i./.r.5XFX7.k.).;.zXmX>.| d.S.0Xn.I.SXSXuXm.d.5.7.N.C.gXVXAXU.Q.Q.n./..XU y y y y y y y y ",
"c c A U l D.v.b.{ 4 *.:.&.%._ ( v.S.S.S.V.G.S.d.p.r.{ r.d.>.G.>.0XsXsXn.Y.SXNXN.;.&.6.:.e.N.A.CXAXI.E.rXv.-X.X$.i y y y y t y y ",
"z c j z l G.b.b.{ #.9.=.&.9.~ d.b.!.G.sXsXdXd.f.1 1 ! ! ) f.t.v.0XqXqXb.I.SX2XV.-.:X0.0.:X3.N.NXCXU.E.R.`.lX%X`.k y y y y t t y ",
"z c j z l 0XS.V._ 2.9.-.&.X.$ v.Y.eXG.qXsXb.f.4 ! [ [ [ ` / f.m.0XsXsXb.I.SXA.f.2.:X0.2.+.X.N.gXSXU.E.R.N.d.d.f.h y y y y y w w ",
"z c j z l fX3X].;.:.6.j.:.%.#.V.2XnX0XsXsXd.r./  . . . .[ ` p.C.aXBXBXn.I.CXA.f.=.6.7.6.%.%.j.gXSXU.E.rXrXn.tXtXW.1.B y t w t t ",
"z c j z l fX3XS.( &.#.#.$ o.$ m.2XNXMXJXnXB.r.'  .^.^.^. .| p.A.nXKXHXn.I.SXA.r.#.#.#.3 ..Q j.gXSX3XE.rXQ.n.CXCXCXAXNXK.K.9X1.# ",
"j c j z l pX3X,., *.6 3 , $ , >.2XNXMXJXFX{.{ '  .IX>XPXh.g.;.'.nXJXHXn.I.SXD., 3 , 3 6 $ , ;.gXSXeXE.Q.Q.n.HXJXJXJXJXJXKXZXeX4 ",
"* * O c l pX3XY X o + . + . X Y BXgXpXHXfXB.{ '  .l.PX~.g.g.;.].vXZXZXn.Y.SX>.X o + . + . X 5 fXSXU.E.Q.rXn.HXJXHXKXJXJXHXMX0X/ ",
"* * & r c fXZ.# # Y 5 h # @ . 3 2XnXpXJXvXB.{ | h.g.g.g.g.h.p.'.nXHXHXn.Y.VX# @ 3 3 h # @ . # uXAXU.E.Q.rXn.HXKXLXHXHXHXHXMXV.5 ",
"& * & O l fXZ.{.yXlXlXlXlXyXyX>.2XnXpXJXMX`.r.| g.g.g.g.p._ ;.].vXZXGXn.I.VXoXkXlXlXlXlXyXyXs.uXAXU.E.rX0Xp.$X&X&X&X&X$X&XXX_ Z ",
"l r o l l uXq.,X,X,X,X,X2XiX,X,.2XgXpXHXvXB.r.a.g.g.g.g.r._ ;.,XVXKXHXn.I.NXA.<X,X,X,X].].,X7.gXSXU.Q.G.k._ k.d.=.=.;.k.k.i.h J ",
"K b f Z Z ,.,.VXVXNXNXNXNXNXNX,X2XnXfXMXvXB.{ a.g.g.g.g.g.h.;.].VXHXbXn.I.SXCXVXgXgXNXgXNXNXNXSXSXU.H.h._ h g f k k f Z C V J J ",
"J r = I I = 0 yXdXyXsXyXdXyXsXM.A.[.>.-.1XB.{ a.g.g.h.h.g.h.;.].8X6.>.n.b.yXdXyXdXdXyXsXyXdXyXsXyXV.g.( g k k b C H J J J J J J ",
"J V M M Z p..X.X.Xk.k.k..X/./.j.j.5.}.}.d.V._ { | | | p.| | _ C.-.[.M.;.p..X.X.Xk./..X.X.Xk.a.)..Xp.2 b k k b H J J J J J J J J ",
"J J J J H T T T U B g S U -.q.$.m.yXkX[.r.) 1 9 9 9 9 0 f.XXd.C.{.kXq.>.U T R U B S T T U 0 y.2 T S V J C V V V J V B H J J J V ",
"J J J J J J J J J J J C S ,XT.L.{.kX{.N.oX9 ; ; : : ; ; ) oX;.M.|.C.:.4XV J J J J J J J H U 3 Z J J J J J J J J H 4 W E J J J Z ",
"U S J B U H H U B J Y K.U Z.T.R '.7.j.V.V.V.r.) } 4 ) p.j.( h q.7.U $.-.C H U B J D U V J d o d J J J J J J J J J U 3 B J J J H ",
"KX$.C T.].B R MXY C q.fXY Z.<.S Y >.N.N.N.N.N.N.N.d.d.N.2 Z L $.{.$.9X,XB T GX$.V T.,XB J J H J J J J J J J J J J d o w H J J J ",
"KX:.<.1XZ.1.1.MX:.1.q.pXl g c D K.bXbXbXbXbXbXbXbXbXfXe.V J J T C.1.1X].1.1.LX-.1.9X,XB J J J J J J J J J K K x x z c c z x x x ",
"HX$.l T.,Xl R mXY l q.K.H V <.8XbXbXbXbXbXbXbXbXbXfX<.L J J J R q.B 9X,XB R LX$.V T.,XB J J J J J J J J J x z z z z z z z z z z ",
"A g l A A d g A g l h b f 1.Z.8XP.P.P.P.P.P.P.P.P.Y b b b b b g g b A A Z g U g b h h n b b b b b b b b b b b P k k k k k k k k ",
"                                                                                                                                ",
"                                                                                                                                ",
"                                                                                                                                ",
"                                                                                                                                ",
"                                                                                                                                "
};
