/* XPM */
static char *_e405255564b455cada4d96470c0074cXwkDRn2pLeXL1LLL[] = {
/* columns rows colors chars-per-pixel */
"64 64 108 2 ",
"   c #FA478D",
".  c #F74C8D",
"X  c #FA4B8F",
"o  c #FA538F",
"O  c #FC4690",
"+  c #F64E91",
"@  c #FB4D92",
"#  c #F75593",
"$  c #FB5495",
"%  c #F65A96",
"&  c #FB5A96",
"*  c #FC5698",
"=  c #F65D99",
"-  c #FB5C9A",
";  c #F66197",
":  c #FA6197",
">  c #F6649C",
",  c #FB639C",
"<  c #F66B9E",
"1  c #FB6A9E",
"2  c #F5709F",
"3  c #FB719E",
"4  c #FC66A1",
"5  c #F66DA1",
"6  c #FB6CA1",
"7  c #F674A5",
"8  c #FB73A4",
"9  c #F67AA7",
"0  c #FB7AA6",
"q  c #F577A9",
"w  c #FB75A8",
"e  c #F57DAA",
"r  c #FA7CAA",
"t  c #F583AE",
"y  c #FA83AD",
"u  c #F589AE",
"i  c #FA89AE",
"p  c #F485B1",
"a  c #FA85B1",
"s  c #F58CB3",
"d  c #FA8CB3",
"f  c #FB8DB8",
"g  c #EF99B8",
"h  c #F693B5",
"j  c #FA93B6",
"k  c #F499B6",
"l  c #F998B7",
"z  c #F595B9",
"x  c #FA94B9",
"c  c #F69CBC",
"v  c #FA9CBC",
"b  c #EFA1BE",
"n  c #F6A2BE",
"m  c #F9A2BE",
"M  c #F59FC0",
"N  c #FA9FC0",
"B  c #F6A5C1",
"V  c #FAA4C1",
"C  c #F6ABC4",
"Z  c #FAA8C0",
"A  c #F9A8C3",
"S  c #F8ACC3",
"D  c #F9AAC5",
"F  c #FBAAC4",
"G  c #F9ADC5",
"H  c #FAACC6",
"J  c #F3AEC8",
"K  c #F4ADC9",
"L  c #F9AEC8",
"P  c #F2B2C7",
"I  c #F7B1C7",
"U  c #F1B4C7",
"Y  c #FAB0C6",
"T  c #F8B4C6",
"R  c #F6B3CA",
"E  c #F4B6C8",
"W  c #F7B5CD",
"Q  c #FAB2C8",
"!  c #F9B2CB",
"~  c #F9B6CA",
"^  c #F8B7CB",
"/  c #F8B4CC",
"(  c #F6B9CB",
")  c #F5B9CC",
"_  c #FAB9CA",
"`  c #F9BBCE",
"'  c #F9BCCE",
"]  c #F8BDCE",
"[  c #F8BDCF",
"{  c #F5BDD1",
"}  c #FABDD1",
"|  c #F6C0CE",
" . c #F8C2CF",
".. c #F6C3D2",
"X. c #F7C4D3",
"o. c #F9C1D1",
"O. c #FBC4D2",
"+. c #FAC5D2",
"@. c #FAC2D4",
"#. c #F8C5D4",
"$. c #F7C8D5",
"%. c #F7C9D7",
"&. c #F9C9D6",
"*. c #F7C7D8",
"=. c #FBC6D9",
"-. c #F6CDDA",
";. c #F9CAD9",
":. c #FAD7DE",
/* pixels */
"C S G ~  .` ` ` ~ Q o.G G Z B ~ Y ~ Y Y _ +.Y m Z Z m v v c m G ~ G m Z Z S m Z S S Y ] Q G D V G D Z B k v G C c l j j d d j j ",
"6 , - - , , : , 1 0 j 1 : & $ $ $ $ ; - , t 1 & , , & $ $ $ : , a 6 & - $ $ $ o & : 3 h 8 & - - $ $ , 7 > : y j i 6 w 6 : , , , ",
"1 : - & : - : - 1 8 h 1 & & $ $ # > % > 8 k 1 1 6 1 & $ # - 1 , s 1 : & $ & $ $ & - 3 j 8 1 - , $ # < 7 , - y j i 1 : 1 6 - : 6 ",
"8 1 - - - , : : , 8 l 1 , , $ & , ; & & , h e : 1 , & & & # - , d 1 - $ $ o & # , 1 8 j 8 6 & & $ 5 < 5 8 1 d j y 1 1 1 w , 1 1 ",
"D B B B B B n m M B X.J K E U P B C R B B ] ) T E ( ) R E R I ` &.W W ~ ) E ~ W ] ) Q X.Q L n C I I E E o.o.+.+. .o.#.%.~ ~ I T ",
", 8 a l y 1 1 1 , : , , 7 8 s 0 : y y y < 6 9 1 , y r 1 , , , : , 1 1 1 t y 1 1 1 , - & , : , u s e 4 , , 1 1 , , 8 8 j 8 1 1 1 ",
", , r x w 8 1 , - , : - 8 1 h d , 0 y 5 0 a , 1 , y i 1 : 1 , , 1 1 : 1 i y , , , - & - : 1 < d s 6 1 , - - - , 4 1 w x 0 1 1 1 ",
", 4 y x y w 1 : - - , , 1 6 z u 1 , ; 0 r , : 1 1 y y 1 1 1 , , , 1 1 1 d i 1 4 4 - & - , 6 9 s j 1 , 1 , , - , 4 6 8 j r 6 1 1 ",
"x x c Y B h h s j s h s z c R J n c c K c h h j c R K M c c c z v v Z C E C x l c j x l k c M ( ` B m Z B Z G Z Z G G +.o.` ~ ~ ",
"d d d d d d d j x v E l j x j s u z k i y n 3 7 1 8 w r r y i j Y i 0 0 8 w 8 8 1 1 r B u 7 < , , , 1 3 0 i Y 0 w 1 8 1 1 1 8 w ",
"1 1 1 1 : : , 1 8 7 Z r 8 1 , : : 1 8 1 1 m w 1 & & : , , 6 8 8 Z y 8 6 , - : : , 4 6 B < 7 1 - & $ : 1 8 0 L 6 8 , , , : , 1 6 ",
"1 1 , , , , , 1 6 7 D y w 1 , , & , 1 1 7 Z 8 , - : , , , 6 8 8 m 0 8 8 : - , , - , 8 G 1 1 , - & & - , 8 r ~ w 6 1 1 , , : 4 w ",
"7 7 7 6 5 > < < 8 9 G u 7 1 8 2 1 0 0 0 9 C d y e 9 9 7 0 9 y r R u t r 7 7 7 7 7 e t { d j d p r e e p u t } s s s h s u 9 t d ",
"m Z G } m m V v v Q Q m v Z | m x j h h j x j j j C v x x x l j x d j j R h i y y e r y i y d Z m j d i d d d d j j m Z c z d d ",
"- 8 0 V 1 1 1 , : 1 , 4 4 8 G 0 8 , - - - , 6 7 w l r 0 w 6 6 6 1 6 8 6 N r 8 1 - & * * , - 4 d y 1 , , , - 1 1 4 y j a 8 , 1 1 ",
": 1 8 n 8 w 1 , , 1 1 , 4 8 Z 0 w , : & & , 1 1 8 j 0 0 w 1 1 1 1 1 6 8 v w 0 4 , - - * , , w d y 4 : , , - 4 1 6 w h a 0 : 1 6 ",
"1 1 w Z 8 4 8 6 , 1 , 6 6 r B 7 r > 1 : , 1 8 8 6 j r 0 0 8 8 1 6 6 8 8 n u 9 e < > > > 1 8 5 z d 7 < > 5 8 8 8 8 0 h j 8 8 8 8 ",
"Z Z Z ) T ] T I R R +.C B B C l v x j v m ` v m n B m v Z D G C o.G Z Z L C B Z V D D ) v v v V V N Z V D ~ %.] G D G m m c c n ",
"4 1 - : - , : 1 1 6 G r 6 8 0 , : , , y y G 1 1 6 1 1 1 1 w r d L 8 4 1 , : - - - 4 6 B 6 4 , , , , 1 , 6 8 D 0 6 1 1 , , 6 6 1 ",
"6 1 1 , , , : , , 1 Y w 6 8 8 1 , , 6 i r Z 8 1 8 1 r 6 6 8 y y D 1 4 1 , , - * - - 1 B 6 , , - - 1 , , 1 8 G w 1 8 8 1 , 1 8 8 ",
"w 1 6 6 , 1 : , , 8 G 8 6 6 1 , , 4 4 r w B 8 6 w 1 6 6 6 w 0 0 L w 4 4 4 1 - , , , 6 Z 7 6 1 , 1 , , , 6 8 R 8 1 8 6 1 : 1 8 9 ",
"n B D B B n c x n n %.C C L R C R E R E R %.R C C I c h l n C C %.C Z m C C Z C D C I &.` ~ Q R W E R ~ G Z ] c n C C R C Y Y S ",
"1 0 y c y w 8 4 , 1 , , 1 6 s y 6 1 , 1 , , 6 w 0 y y w 6 6 4 6 6 4 w 8 r d w 6 4 1 4 , 1 4 6 a m d f j y r r w r r f V x d r 6 ",
"1 , 8 s y 4 6 , - - , , : , y w 1 - & - , - 4 8 w y y 8 6 4 1 4 1 1 , 1 w y 8 4 , & - & - , 4 r v r y i i 8 0 w r r i Z l d y 6 ",
"1 : 8 z r 1 6 1 - - , : , 1 d 0 - & - & - - , 8 w y y 8 8 8 6 4 , 4 , 4 r a 8 6 4 : , & , : 6 r v r i a r 0 0 r i a a m j j y 8 ",
"d u d C s 9 y e e e e t t t z z t t t t s d s x z n B h j h s d j x z j n D j x x d j s j x j c ) m m m c v v c Z Z Z E n n n M ",
"m x j j j d d h x Z E m v d j d d d j j d C v d d d a y y i d x Z V l j j j d d d j c B Z c x d j d d d d j Z Z j j d d v v c m ",
"0 6 1 , : - , 4 8 r z r w - - & - , 8 1 6 c d 0 r 8 8 8 8 0 0 i x d w r 0 w 1 6 1 : 8 j y w 0 1 6 6 1 1 6 8 x j d w r 0 r r y y ",
"y 8 6 6 - - 1 4 4 r x 0 4 - & $ - , 8 8 8 j i w r w 6 6 6 6 8 y h d w y w w 8 , 1 1 4 d y 8 8 y 7 6 6 4 1 8 j j r 6 8 r y 0 r 8 ",
"r w 8 w > 4 1 4 8 7 c r 8 , > , 1 6 0 0 0 n B r y r r r r 0 y h c d r r w 7 w 1 6 6 7 c d r r 7 7 8 8 8 1 7 h h u 8 8 0 e 8 r 0 ",
"` o.o.%...*.~ ` ` ` ..~ I Q ) @.` ] } } ] %.......;.;.@.#.@.} @.o.` ~ ]  .;.} } ` ` } @.` ] } o.#.} } ~ Q ` ` ~ Q G G { ` ~ ` ] ",
"8 8 y D j 6 4 4 , , 1 6 8 w y x 1 , 8 8 1 e w w 8 0 y 0 r w w 6 w 0 0 a r z 6 1 , & - - , 4 , > m y 8 6 : 1 , 6 w w 0 B d y y 0 ",
"6 8 r d v 6 , - , - 1 6 6 0 0 v 1 1 8 8 9 e 0 w w r d r y y w w 8 r w y w j , , , $ $ $ * , 4 9 n d r w - - , 4 8 8 7 D y w 0 8 ",
"w w r s d 8 1 - , - - 4 1 w w v 1 , 4 e 0 9 7 8 1 r f 0 y a w w 8 w r r y v 4 , 4 , - & - 4 e w Z y w e 4 - 4 6 8 8 0 D r r w w ",
"Z Z G ~ R n c Z B B c B Z C C ) n c C B C n Z G C C _ Z Z C n n C Z C n C C h z l v x c z n v R X.C n Z C m G c n v D C x c c x ",
"r w r 8 w w w r r 8 p 0 4 8 6 4 6 e r t r s a 6 8 8 4 4 6 8 r 6 s a r 1 6 6 1 - , 1 8 d 9 > , r a a , > 5 , d 6 4 , - & $ & - - ",
"0 0 8 1 6 6 4 8 8 6 t 1 , 1 & , 6 7 8 8 , r 0 , 1 , , : , 1 , - r w : - & $ $ X $ $ - a 1 # @ 6 r 5 7 r & & y 1 , * $ $ $ $ $ $ ",
"r w 6 6 4 4 , 4 6 6 y 6 , @ $ = 7 7 w 8 4 r 0 1 , , : , , 1 , - y 0 , & $ @ @ @ $ $ * t 8 = O @ $ 7 w % $ - u 6 1 * $ $ $ $ $ - ",
"v h h y d d y d d s c s p e t t t s s p p l h f a t y a a d d s V z p p u y e 0 7 0 e M d s s e p M p t t s C m v x d p t t t t ",
"j j x Z / v j d d j j j v l Z ) h j x d d d d j x x ~ f i y y y a f a f x G y r r r 8 8 7 0 y s ~ d d a a a a y a d d Q a y r r ",
"$ $ 4 4 x r $ $ $ * $ - 4 7 < v , , w - - - - 1 , 4 v 6 - @ @ @ X $ $ $ $ v & $ * @ O O @ $ $ = n , & $ $   O @ $ * - v 1 - & & ",
"$ & 4 6 j , @   O O @ * - 1 < v - - 8 & & & - 4 , - v 8 , $ O O O @ $ & & v * $ * $ O O O * * $ v , $ @ @ O @ @ $ & $ x 1 & & & ",
"- > 4 q C 4 $ & $ & & , 8 8 8 V 8 1 0 1 4 6 6 w 0 5 Z 7 6 4 - & - 1 4 4 1 G 6 1 < 4 - , 1 4 6 1 Z 7 6 1 & & , - - , 6 l e 7 < 6 ",
"L Z Z Z Q D V V Z D ..Z V D Z D V Z Z Z L o.Z m v V D Z Z Z D G #.G m m v Z m v N v V ) D v x x v m V V D G ~ Z v x x V Z Z Z V ",
", - * & $ X $ $ * - M 8 $ : - * $ * - , 1 x 1 - * $ $ = * & , 8 Z 0 1 - $ $ $ * $ & , d 4 $ $ $ X - - $ * $ r 4 , $ * & & - : 4 ",
", $ $ $ $   @ @ $ - c 4 $ - - $ & - - - 4 c 1 1 $ * $ $ & $ - , V w , @ $ @ + @ $ , , d 5 @ $ $   $ @ @ $ $ a 1 & & & - , , , 4 ",
"1 1 & & *   $ & & $ N 8 - , - - - : , , 8 c 1 , & & $ & $ - - , N 8 - $ $ $   @ $ & 1 s = O + $   $ . $ $ & y 1 $ $ - , 1 1 1 8 ",
"B B B C V c n Z c N { G L L D Q D Z B Z Z ( ~ ~ ` ` ) R L C G C } R C K E R C D Z G Q } ` W W ) ) K C G C R ` Q D Q G ) D G Z G ",
"- , 1 s 8 & & > $ $ $ , , , y y 1 , : , , 1 4 8 w d d 4 , 1 , 6 1 , 4 1 6 y , & X @ @ $ * , , , d , 1 1 $ & $ , - 4 : x 6 6 , & ",
"* - 4 f 8 & @ * O @ @ & 1 1 t a 1 , , - - - 1 6 w j d - $ $ $ , , & - - 1 f * * O $ @ @ $ - 4 1 v , , - $ $ $ & - 1 & j , 6 - - ",
"& , 6 f 8 - $ $ @ @ $ - , , s y 4 - 1 - - 1 4 8 0 j v 4 & $ $ & 1 1 & * 8 d - * $ @ @ @ $ - , - x : , & $ & & & , & - j , , , , ",
"v m n } b g M M B c C C C C ) } C D G C C G C Q ~ &.{ B B B B C R C C B I o.G B n l v Z Z n B C ) C K n B C C B n n C o.D D C K ",
"r w 0 6 6 6 6 6 r r V r 8 6 4 4 6 6 6 y r B w 6 4 4 6 4 4 8 8 0 x 0 1 4 4 4 1 , 1 , 1 C r 4 4 1 1 4 8 y y w V 6 4 , 4 4 6 6 8 8 ",
"1 4 - $ $ $ * $ 4 1 m 4 - $ $ $ * , & 4 6 v - $ & & $ $ $ * & - j , X $ $ @ @ @ $ $ & n 4 $ $ @ @ & , 1 8 1 x - , $ $ $ - $ , , ",
"1 4 , * * * - 4 6 8 V , - & * $ * - - 4 w c , - $ $ $ @ * - - , x , $ $ * - $ $ * * & B 6 - @ $ @ $ $ , , - x * - @ @ $ * $ , - ",
"s d d y a p p s s h ` h d d d u p s f s p W s s p p s p p s s l ] p p p t t p e p s s ..e e e t e t s d u s E p p t t p y y y y ",
"v Z Z #.D v x N v v v V v v ` Z v v v v v x m x V Q x f a a a d f f x j S x y y a y r a d d f #.v j x j f d j x x v o.V v j v v ",
"- 4 1 V 4 $ & - $ $ - * , 1 x 1 , - - * * , 1 4 1 x 8 * @ @ $ @ * & - 1 c w & * 1 * $ - , - , Q 6 $ , $ @ @ @ $ - 1 v 8 - , 8 , ",
", 6 4 N 4 & @ & * $ & * , 1 z 4 4 , - - - , 1 4 4 v 8 * @ @ $ @ @ - $ 1 B w & $ 1 = & & - & , ~ 1 & : & $ @ @ & & : V , $ 1 r 4 ",
"> 6 6 Z = > % = - = , 1 1 8 z > > , 1 > > 4 8 0 9 v 9 5 , , , > 1 6 1 < C 7 - > 5 < > 5 5 1 w } y 1 , , = % % , 6 1 Z 9 1 1 y w ",
"@.} } =.} } } @.=.=.=.} ` o.=.@.@.} =.;.-.;.=.} @.o.} ` } } } ;.X.] Q ~ } } } } } } ..%.} ] ] @.+.@.o.o.E #.:.o.o.} @.@.o.} ` } ",
"4 , - * & $ - 4 4 8 6 : 1 , , & $ - , > 0 d 1 $ - & & * , 4 6 y d w & $ - $ $ - $ - w e , $ $ $ $ $ & 5 > 1 D & * $ O @ $ & , , ",
"4 , & $ $ & - - 4 7 6 , , , - $ $ 5 1 e s d , $ $ $ $ $ - , 6 d j 8 $ & - * $ * * - 8 a 4 $ @ $ $ * q w 4 < G * $ @ + @ $ $ - 4 ",
", - & & * & - , , r 8 , , 4 , - > & - 4 t z 0 & $ * $ * 1 6 8 y j 8 $ & , - - - - - 0 h - $ & $ # 5 8 5 > 1 L $ @ $ @ $ $ & , 4 "
};
